<?xml version="1.0" standalone="no"?>
<!DOCTYPE svg PUBLIC "-//W3C//DTD SVG 1.1//EN" "http://www.w3.org/Graphics/SVG/1.1/DTD/svg11.dtd">
<svg xmlns="http://www.w3.org/2000/svg" xmlns:xlink="http://www.w3.org/1999/xlink" version="1.1" id="Layer_1" x="0px" y="0px" width="841.8900146484375" height="595.280029296875" viewBox="0 0 841.89 595.28" enable-background="new 0 0 841.89 595.28" xml:space="preserve">
<g>
	<path fill="#F2F1F1" d="M305.482,273.065l-18.887,47.646h6.329l6.261-16.202h18.854l6.262,16.202h6.328l-18.886-47.646H305.482z    M301.144,299.406l7.452-19.384l7.489,19.384H301.144z"/>
	<path fill="#F2F1F1" d="M361.007,306.879c-0.883-1.205-1.746-2.324-2.584-3.363c-0.84-1.038-1.646-1.94-2.417-2.699   c-0.773-0.764-1.481-1.354-2.123-1.774l0.035-0.067c1.566-0.176,3.042-0.496,4.423-0.96c1.378-0.463,2.634-1.115,3.763-1.955   c1.455-1.082,2.6-2.451,3.426-4.108c0.83-1.656,1.243-3.612,1.243-5.864c0-2.254-0.413-4.209-1.243-5.865   c-0.826-1.657-1.971-3.024-3.426-4.107c-1.438-1.062-3.09-1.834-4.955-2.319c-1.868-0.486-3.851-0.729-5.949-0.729H336.29v47.646   h6.162v-21.736h1.261c1.192,0,2.241,0.135,3.146,0.397c0.906,0.267,1.789,0.772,2.652,1.525c0.883,0.752,1.815,1.778,2.799,3.079   c0.982,1.307,2.146,3.017,3.495,5.14l7.489,11.595h7.289l-6.892-10.041C362.787,309.346,361.892,308.082,361.007,306.879z    M351.199,294.138h-8.747v-16.103h8.747c1.394,0,2.663,0.156,3.811,0.465s2.139,0.789,2.969,1.441   c0.826,0.649,1.473,1.484,1.936,2.5c0.462,1.018,0.695,2.23,0.695,3.646c0,1.414-0.233,2.629-0.695,3.646   c-0.463,1.015-1.109,1.849-1.936,2.501c-0.83,0.651-1.821,1.132-2.969,1.441C353.862,293.983,352.593,294.138,351.199,294.138z"/>
	<rect x="420.786" y="273.065" fill="#F2F1F1" width="6.228" height="47.646"/>
	<polygon fill="#F2F1F1" points="456.885,313.125 442.805,273.065 436.277,273.065 454.104,320.777 459.637,320.777    477.432,273.065 470.9,273.065  "/>
	<rect x="486.709" y="273.065" fill="#F2F1F1" width="6.227" height="47.646"/>
	<polygon fill="#F2F1F1" points="522.166,313.125 508.086,273.065 501.557,273.065 519.383,320.777 524.916,320.777    542.709,273.065 536.182,273.065  "/>
	<polygon fill="#F2F1F1" points="556.607,315.607 556.607,299.4 572.92,299.4 572.92,294.295 556.607,294.295 556.607,278.167    577.582,278.167 577.582,273.065 550.377,273.065 550.377,320.711 577.582,320.711 577.582,315.607  "/>
	<path fill="#F2F1F1" d="M264.308,336.057h144.827v-76.833H264.308V336.057z M266.957,261.874h139.528v11.192h-34.359v5.102h14.811   v42.544h6.228v-42.544h13.321v55.241H266.957V261.874z"/>
</g>
</svg>